<svg width="706" height="464" viewBox="0 0 706 464" fill="none" xmlns="http://www.w3.org/2000/svg">
<g clip-path="url(#clip0_4_2)">
<rect width="706" height="464" fill="#0c1d19"/>
<path d="M56.4846 -1H660.058L703 427H4L56.4846 -1Z" fill="#091915"/>
<path d="M111 -0.5H598.2L631.5 373H73L111 -0.5Z" fill="#152e27" stroke="rgba(143,225,178,0.22)" stroke-width="4" stroke-linejoin="round"/>
<path d="M111 -0.5H598.2L631.5 373H73L111 -0.5Z" stroke="rgba(143,225,178,0.28)" stroke-width="4" stroke-linejoin="round"/>
<path d="M3 427H702L688.879 464H19.6997L3 427Z" fill="#091915"/>
<rect x="299" y="374" width="105" height="36" fill="#162c26" stroke="rgba(143,225,178,0.28)" stroke-width="2"/>
<path d="M539.58 1H596L616 223L613 217L605 206.5L599.5 200.5L596 196.5L585.5 185.5L572.5 174.5L565 169L556 162.5L543.5 155.5L528 149L520 147L505 143.5L496.5 142L484 140L478.5 139.5L476 139L539.58 1Z" fill="#152e27"/>
<path d="M539.58 1H596L616 223L613 217L605 206.5L599.5 200.5L596 196.5L585.5 185.5L572.5 174.5L565 169L556 162.5L543.5 155.5L528 149L520 147L505 143.5L496.5 142L484 140L478.5 139.5L476 139L539.58 1Z" fill="#152e27"/>
<path d="M169.12 0H112.7L95 176L90 226.5L93 220L97.5 214L107.5 202L123.5 186.5L132.5 178L135 176L142 170L152 163L162 156.5L180.7 148L188.7 146L191.5 145.5L197.5 144.5L202 144L209.5 143.5L215.5 143L220.5 142.5L226.5 142H232L169.12 0Z" fill="#152e27"/>
<path d="M169.12 0H112.7L95 176L90 226.5L93 220L97.5 214L107.5 202L123.5 186.5L132.5 178L135 176L142 170L152 163L162 156.5L180.7 148L188.7 146L191.5 145.5L197.5 144.5L202 144L209.5 143.5L215.5 143L220.5 142.5L226.5 142H232L169.12 0Z" fill="#152e27"/>
<path d="M354 1.5H539L475.5 139L464 138L448 137L431.5 136.5H415.5H399H384.5L371 137L353.28 138L354 1.5Z" fill="#152e27"/>
<path d="M353 1.5L171 2L233 142L237.5 141.5L241 141L256.5 140.5L270.5 140L283 139.5L295 139H311L324 138.5H338.5L352.5 138L353 1.5Z" fill="#152e27"/>
<path d="M234 143.5L351.5 140V196L258.5 198.5L234 143.5Z" fill="#152e27"/>
<path d="M353.5 140.5L388.5 139.5H403.5H417.5H432L453 140.5L465 141L475 142.43L449 197.5L410 196H353.5V140.5Z" fill="#152e27"/>
<path d="M232 143.5L257.5 198.171L219.5 201L191 203.5L165 211.839L149 225L116.5 196L132.5 181L149 168L175 152.106L203 146L232 143.5Z" fill="#152e27"/>
<path d="M475.5 141L496.5 144L507 145.5L516.5 148L526 150.5L535 154L547.5 160L559.5 167L578 181.5L593.5 196L561 224L553 217.5L535 208L512.5 202L492.5 199L450.5 195L475.5 141Z" fill="#152e27"/>
<path d="M593.5 196.5L602 206.5L610 216.5L616 223L623.5 305.5V308.5L611 284L605 274.5L598.5 265L589 252L577 238.5L571.5 232.5L562 224.5L593.5 196.5Z" fill="#152e27"/>
<path d="M116.5 196.5L148.5 225L136 237L126 248L115 260L104.5 274L97 284.5L89.5 296.5L81.5 309V305.5L89.5 228L91.5 225.5L95.5 220L98.5 216L104.5 209L110 202L116.5 196.5Z" fill="#152e27"/>
<path d="M226 202L242 201.25L258 200.5L260 205.5L263.5 213L267.5 222L274 236L244 237.5L221.5 242L203.5 249.5L187 259.5L149 226.423L163.5 216.5L180 208L190 205.5L226 202Z" fill="#152e27"/>
<path d="M81.5 311L84.5 307L252 371.5H74.5L81.5 311Z" fill="#152e27"/>
<path d="M149.5 226.5L187 260.5L172 275L162.5 287L152 306.5L144.5 329L84.5 306.5L105 275.5L122 253.5L137 238L149.5 226.5Z" fill="#152e27"/>
<path d="M259 200.5L305.5 198.5L352 198V236L275 237L259 200.5Z" fill="#152e27"/>
<path d="M353 198.513L363 197.5H377H402H449L430.5 237H352.5L353 198.513Z" fill="#152e27"/>
<path d="M449.5 197L486 200L516 205L535 210.5L547.5 217L560 225.5L522 259L512.5 253L504 248.5L490 243L476 239L456.5 236H431.5L449.5 197Z" fill="#152e27"/>
<path d="M562.5 226L575.5 237.5L586 249L603.5 272L623.5 306.5L569.5 326.5L564.5 312L556 294L543.5 277.5L524 260L562.5 226Z" fill="#152e27"/>
<path d="M624.5 313L629.5 371.5H451L621.5 306.5L624.5 313Z" fill="#152e27"/>
<path d="M451.581 237C503.662 237 548.373 270.58 564.338 317.893C564.637 318.777 564.925 319.667 565.203 320.561C567.846 329.052 569.57 337.964 570.255 347.187L572.097 372H140.395L142.827 345.157C148.388 284.377 199.007 237.734 259.892 237.009L261.333 237H451.581Z" fill="#152e27" stroke="rgba(143,225,178,0.22)" stroke-width="2"/>
<line x1="351.82" y1="409.467" x2="81.8203" y2="305.467" stroke="rgba(143,225,178,0.35)"/>
<line x1="351.664" y1="409.37" x2="94.6642" y2="176.37" stroke="rgba(143,225,178,0.35)"/>
<line x1="351.543" y1="409.204" x2="168.543" y2="-0.796199" stroke="rgba(143,225,178,0.35)"/>
<line x1="351.5" y1="408.998" x2="353.5" y2="-1.00243" stroke="rgba(143,225,178,0.35)"/>
<line x1="351.546" y1="408.791" x2="540.546" y2="-1.20932" stroke="rgba(143,225,178,0.35)"/>
<line x1="351.67" y1="408.625" x2="616.67" y2="175.625" stroke="rgba(143,225,178,0.35)"/>
<line x1="351.823" y1="408.533" x2="625.823" y2="304.533" stroke="rgba(143,225,178,0.35)"/>
<ellipse cx="352" cy="258" rx="8" ry="6" fill="#8fe1b2"/>
<path d="M87.5 229C87.5 229 141.287 151.629 198 145.5C254.713 139.371 354.073 138.903 354.073 138.903C354.073 138.903 478.016 131.03 531.612 151.483C585.207 171.936 620 229 620 229" stroke="rgba(143,225,178,0.45)" stroke-width="2"/>
<line x1="336" y1="212" x2="368" y2="212" stroke="rgba(143,225,178,0.45)" stroke-width="2"/>
<path d="M111 -0.5H598.2L631.5 373H73L111 -0.5Z" stroke="rgba(143,225,178,0.28)" stroke-width="4" stroke-linejoin="round"/>
<path d="M80 312.111C80 312.111 136.176 210.196 194.001 203.933C251.826 197.67 353.611 197.216 353.611 197.216C353.611 197.216 479.981 189.147 534.614 209.922C589.246 230.697 624.679 312.111 624.679 312.111" stroke="rgba(143,225,178,0.28)" stroke-width="2" stroke-dasharray="8 8"/>
<path d="M293.866 209.614V208.364H302.594V209.614H298.935V220H297.526V209.614H293.866ZM312.239 212C312.114 211.617 311.949 211.275 311.744 210.972C311.544 210.665 311.303 210.403 311.023 210.188C310.746 209.972 310.432 209.807 310.08 209.693C309.727 209.58 309.341 209.523 308.92 209.523C308.231 209.523 307.604 209.701 307.04 210.057C306.475 210.413 306.027 210.938 305.693 211.631C305.36 212.324 305.193 213.174 305.193 214.182C305.193 215.189 305.362 216.04 305.699 216.733C306.036 217.426 306.492 217.951 307.068 218.307C307.644 218.663 308.292 218.841 309.011 218.841C309.678 218.841 310.265 218.699 310.773 218.415C311.284 218.127 311.682 217.722 311.966 217.199C312.254 216.672 312.398 216.053 312.398 215.341L312.83 215.432H309.33V214.182H313.761V215.432C313.761 216.39 313.557 217.223 313.148 217.932C312.742 218.64 312.182 219.189 311.466 219.58C310.754 219.966 309.936 220.159 309.011 220.159C307.981 220.159 307.076 219.917 306.295 219.432C305.519 218.947 304.913 218.258 304.477 217.364C304.045 216.47 303.83 215.409 303.83 214.182C303.83 213.261 303.953 212.434 304.199 211.699C304.449 210.96 304.801 210.331 305.256 209.812C305.71 209.294 306.248 208.896 306.869 208.619C307.491 208.343 308.174 208.205 308.92 208.205C309.534 208.205 310.106 208.297 310.636 208.483C311.17 208.665 311.646 208.924 312.062 209.261C312.483 209.595 312.833 209.994 313.114 210.46C313.394 210.922 313.587 211.436 313.693 212H312.239ZM316.334 220L321.538 209.705V209.614H315.538V208.364H322.993V209.682L317.811 220H316.334Z" fill="rgba(143,225,178,0.45)"/>
<path d="M280.007 164.614V163.364H288.734V164.614H285.075V175H283.666V164.614H280.007ZM298.379 167C298.254 166.617 298.089 166.275 297.885 165.972C297.684 165.665 297.444 165.403 297.163 165.188C296.887 164.972 296.572 164.807 296.22 164.693C295.868 164.58 295.482 164.523 295.061 164.523C294.372 164.523 293.745 164.701 293.18 165.057C292.616 165.413 292.167 165.938 291.834 166.631C291.5 167.324 291.334 168.174 291.334 169.182C291.334 170.189 291.502 171.04 291.839 171.733C292.177 172.426 292.633 172.951 293.209 173.307C293.785 173.663 294.432 173.841 295.152 173.841C295.819 173.841 296.406 173.699 296.913 173.415C297.425 173.127 297.822 172.722 298.107 172.199C298.394 171.672 298.538 171.053 298.538 170.341L298.97 170.432H295.47V169.182H299.902V170.432C299.902 171.39 299.697 172.223 299.288 172.932C298.883 173.64 298.322 174.189 297.607 174.58C296.894 174.966 296.076 175.159 295.152 175.159C294.122 175.159 293.216 174.917 292.436 174.432C291.66 173.947 291.054 173.258 290.618 172.364C290.186 171.47 289.97 170.409 289.97 169.182C289.97 168.261 290.093 167.434 290.339 166.699C290.589 165.96 290.942 165.331 291.396 164.812C291.851 164.294 292.389 163.896 293.01 163.619C293.631 163.343 294.315 163.205 295.061 163.205C295.675 163.205 296.247 163.297 296.777 163.483C297.311 163.665 297.786 163.924 298.203 164.261C298.624 164.595 298.974 164.994 299.254 165.46C299.535 165.922 299.728 166.436 299.834 167H298.379ZM305.838 175.159C305.058 175.159 304.368 175.021 303.77 174.744C303.175 174.464 302.711 174.08 302.378 173.591C302.045 173.098 301.88 172.538 301.884 171.909C301.88 171.417 301.976 170.962 302.173 170.545C302.37 170.125 302.639 169.775 302.98 169.494C303.325 169.21 303.709 169.03 304.134 168.955V168.886C303.577 168.742 303.134 168.43 302.804 167.949C302.474 167.464 302.312 166.913 302.315 166.295C302.312 165.705 302.461 165.176 302.764 164.71C303.067 164.244 303.484 163.877 304.014 163.608C304.548 163.339 305.156 163.205 305.838 163.205C306.512 163.205 307.115 163.339 307.645 163.608C308.175 163.877 308.592 164.244 308.895 164.71C309.202 165.176 309.357 165.705 309.361 166.295C309.357 166.913 309.188 167.464 308.855 167.949C308.526 168.43 308.088 168.742 307.543 168.886V168.955C307.963 169.03 308.342 169.21 308.679 169.494C309.016 169.775 309.285 170.125 309.486 170.545C309.687 170.962 309.789 171.417 309.793 171.909C309.789 172.538 309.618 173.098 309.281 173.591C308.948 174.08 308.484 174.464 307.889 174.744C307.298 175.021 306.615 175.159 305.838 175.159ZM305.838 173.909C306.365 173.909 306.819 173.824 307.202 173.653C307.584 173.483 307.88 173.242 308.088 172.932C308.296 172.621 308.402 172.258 308.406 171.841C308.402 171.402 308.289 171.013 308.065 170.676C307.842 170.339 307.537 170.074 307.151 169.881C306.768 169.687 306.33 169.591 305.838 169.591C305.342 169.591 304.899 169.687 304.509 169.881C304.122 170.074 303.817 170.339 303.594 170.676C303.374 171.013 303.266 171.402 303.27 171.841C303.266 172.258 303.366 172.621 303.571 172.932C303.779 173.242 304.077 173.483 304.463 173.653C304.849 173.824 305.308 173.909 305.838 173.909ZM305.838 168.386C306.255 168.386 306.624 168.303 306.946 168.136C307.272 167.97 307.527 167.737 307.713 167.438C307.899 167.138 307.993 166.788 307.997 166.386C307.993 165.992 307.901 165.65 307.719 165.358C307.537 165.062 307.285 164.835 306.963 164.676C306.641 164.513 306.266 164.432 305.838 164.432C305.402 164.432 305.022 164.513 304.696 164.676C304.37 164.835 304.118 165.062 303.94 165.358C303.762 165.65 303.675 165.992 303.679 166.386C303.675 166.788 303.764 167.138 303.946 167.438C304.132 167.737 304.387 167.97 304.713 168.136C305.039 168.303 305.414 168.386 305.838 168.386Z" fill="rgba(143,225,178,0.45)"/>
<path d="M163.07 178.614V177.364H171.797V178.614H168.138V189H166.729V178.614H163.07ZM181.442 181C181.317 180.617 181.152 180.275 180.947 179.972C180.747 179.665 180.506 179.403 180.226 179.188C179.949 178.972 179.635 178.807 179.283 178.693C178.93 178.58 178.544 178.523 178.124 178.523C177.434 178.523 176.807 178.701 176.243 179.057C175.679 179.413 175.23 179.938 174.896 180.631C174.563 181.324 174.396 182.174 174.396 183.182C174.396 184.189 174.565 185.04 174.902 185.733C175.239 186.426 175.696 186.951 176.271 187.307C176.847 187.663 177.495 187.841 178.214 187.841C178.881 187.841 179.468 187.699 179.976 187.415C180.487 187.127 180.885 186.722 181.169 186.199C181.457 185.672 181.601 185.053 181.601 184.341L182.033 184.432H178.533V183.182H182.964V184.432C182.964 185.39 182.76 186.223 182.351 186.932C181.946 187.64 181.385 188.189 180.669 188.58C179.957 188.966 179.139 189.159 178.214 189.159C177.184 189.159 176.279 188.917 175.499 188.432C174.722 187.947 174.116 187.258 173.68 186.364C173.249 185.47 173.033 184.409 173.033 183.182C173.033 182.261 173.156 181.434 173.402 180.699C173.652 179.96 174.004 179.331 174.459 178.812C174.913 178.294 175.451 177.896 176.072 177.619C176.694 177.343 177.377 177.205 178.124 177.205C178.737 177.205 179.309 177.297 179.839 177.483C180.374 177.665 180.849 177.924 181.266 178.261C181.686 178.595 182.036 178.994 182.317 179.46C182.597 179.922 182.79 180.436 182.896 181H181.442ZM188.81 189.159C188.143 189.159 187.543 189.027 187.009 188.761C186.474 188.496 186.046 188.133 185.724 187.67C185.402 187.208 185.226 186.682 185.196 186.091H186.56C186.613 186.617 186.851 187.053 187.276 187.398C187.704 187.739 188.215 187.909 188.81 187.909C189.287 187.909 189.711 187.797 190.082 187.574C190.457 187.35 190.751 187.044 190.963 186.653C191.179 186.259 191.287 185.814 191.287 185.318C191.287 184.811 191.175 184.358 190.952 183.96C190.732 183.559 190.429 183.242 190.043 183.011C189.656 182.78 189.215 182.663 188.719 182.659C188.363 182.655 187.997 182.71 187.622 182.824C187.247 182.934 186.938 183.076 186.696 183.25L185.378 183.091L186.082 177.364H192.128V178.614H187.264L186.855 182.045H186.923C187.162 181.856 187.461 181.699 187.821 181.574C188.181 181.449 188.556 181.386 188.946 181.386C189.658 181.386 190.293 181.557 190.849 181.898C191.41 182.235 191.849 182.697 192.168 183.284C192.49 183.871 192.651 184.542 192.651 185.295C192.651 186.038 192.484 186.701 192.151 187.284C191.821 187.864 191.366 188.322 190.787 188.659C190.207 188.992 189.548 189.159 188.81 189.159Z" fill="rgba(143,225,178,0.45)"/>
<path d="M91.843 234.614V233.364H100.57V234.614H96.9112V245H95.5021V234.614H91.843ZM110.215 237C110.09 236.617 109.925 236.275 109.721 235.972C109.52 235.665 109.28 235.403 108.999 235.188C108.723 234.972 108.408 234.807 108.056 234.693C107.704 234.58 107.317 234.523 106.897 234.523C106.208 234.523 105.581 234.701 105.016 235.057C104.452 235.413 104.003 235.938 103.67 236.631C103.336 237.324 103.17 238.174 103.17 239.182C103.17 240.189 103.338 241.04 103.675 241.733C104.013 242.426 104.469 242.951 105.045 243.307C105.621 243.663 106.268 243.841 106.988 243.841C107.655 243.841 108.242 243.699 108.749 243.415C109.261 243.127 109.658 242.722 109.942 242.199C110.23 241.672 110.374 241.053 110.374 240.341L110.806 240.432H107.306V239.182H111.738V240.432C111.738 241.39 111.533 242.223 111.124 242.932C110.719 243.64 110.158 244.189 109.442 244.58C108.73 244.966 107.912 245.159 106.988 245.159C105.958 245.159 105.052 244.917 104.272 244.432C103.496 243.947 102.889 243.258 102.454 242.364C102.022 241.47 101.806 240.409 101.806 239.182C101.806 238.261 101.929 237.434 102.175 236.699C102.425 235.96 102.778 235.331 103.232 234.812C103.687 234.294 104.225 233.896 104.846 233.619C105.467 233.343 106.151 233.205 106.897 233.205C107.511 233.205 108.083 233.297 108.613 233.483C109.147 233.665 109.622 233.924 110.039 234.261C110.46 234.595 110.81 234.994 111.09 235.46C111.371 235.922 111.564 236.436 111.67 237H110.215ZM117.879 245.159C117.129 245.159 116.46 245.03 115.873 244.773C115.29 244.515 114.826 244.157 114.481 243.699C114.14 243.237 113.954 242.701 113.924 242.091H115.356C115.386 242.466 115.515 242.79 115.742 243.062C115.969 243.331 116.267 243.54 116.634 243.688C117.002 243.835 117.409 243.909 117.856 243.909C118.356 243.909 118.799 243.822 119.185 243.648C119.572 243.473 119.875 243.231 120.094 242.92C120.314 242.61 120.424 242.25 120.424 241.841C120.424 241.413 120.318 241.036 120.106 240.71C119.894 240.381 119.583 240.123 119.174 239.938C118.765 239.752 118.265 239.659 117.674 239.659H116.742V238.409H117.674C118.136 238.409 118.541 238.326 118.89 238.159C119.242 237.992 119.517 237.758 119.714 237.455C119.915 237.152 120.015 236.795 120.015 236.386C120.015 235.992 119.928 235.65 119.754 235.358C119.579 235.066 119.333 234.839 119.015 234.676C118.701 234.513 118.329 234.432 117.901 234.432C117.5 234.432 117.121 234.506 116.765 234.653C116.413 234.797 116.125 235.008 115.901 235.284C115.678 235.557 115.557 235.886 115.538 236.273H114.174C114.197 235.663 114.38 235.129 114.725 234.67C115.07 234.208 115.521 233.848 116.077 233.591C116.638 233.333 117.254 233.205 117.924 233.205C118.644 233.205 119.261 233.35 119.776 233.642C120.291 233.93 120.687 234.311 120.964 234.784C121.24 235.258 121.379 235.769 121.379 236.318C121.379 236.973 121.206 237.532 120.862 237.994C120.521 238.456 120.057 238.777 119.469 238.955V239.045C120.204 239.167 120.778 239.479 121.191 239.983C121.604 240.483 121.81 241.102 121.81 241.841C121.81 242.473 121.638 243.042 121.293 243.545C120.952 244.045 120.487 244.439 119.896 244.727C119.305 245.015 118.632 245.159 117.879 245.159Z" fill="rgba(143,225,178,0.45)"/>
<path d="M133.945 100.614V99.3636H142.672V100.614H139.013V111H137.604V100.614H133.945ZM152.317 103C152.192 102.617 152.027 102.275 151.822 101.972C151.622 101.665 151.381 101.403 151.101 101.188C150.824 100.972 150.51 100.807 150.158 100.693C149.805 100.58 149.419 100.523 148.999 100.523C148.309 100.523 147.682 100.701 147.118 101.057C146.554 101.413 146.105 101.938 145.771 102.631C145.438 103.324 145.271 104.174 145.271 105.182C145.271 106.189 145.44 107.04 145.777 107.733C146.114 108.426 146.571 108.951 147.146 109.307C147.722 109.663 148.37 109.841 149.089 109.841C149.756 109.841 150.343 109.699 150.851 109.415C151.362 109.127 151.76 108.722 152.044 108.199C152.332 107.672 152.476 107.053 152.476 106.341L152.908 106.432H149.408V105.182H153.839V106.432C153.839 107.39 153.635 108.223 153.226 108.932C152.821 109.64 152.26 110.189 151.544 110.58C150.832 110.966 150.014 111.159 149.089 111.159C148.059 111.159 147.154 110.917 146.374 110.432C145.597 109.947 144.991 109.258 144.555 108.364C144.124 107.47 143.908 106.409 143.908 105.182C143.908 104.261 144.031 103.434 144.277 102.699C144.527 101.96 144.879 101.331 145.334 100.812C145.788 100.294 146.326 99.8958 146.947 99.6193C147.569 99.3428 148.252 99.2045 148.999 99.2045C149.612 99.2045 150.184 99.2973 150.714 99.483C151.249 99.6648 151.724 99.9242 152.141 100.261C152.561 100.595 152.911 100.994 153.192 101.46C153.472 101.9223 153.665 102.436 153.771 103H152.317ZM159.912 111.159C159.435 111.152 158.957 111.061 158.48 110.886C158.003 110.712 157.567 110.419 157.173 110.006C156.779 109.589 156.463 109.027 156.224 108.318C155.986 107.606 155.866 106.712 155.866 105.636C155.866 104.606 155.963 103.693 156.156 102.898C156.349 102.098 156.63 101.426 156.997 100.881C157.365 100.331 157.808 99.9148 158.327 99.6307C158.849 99.3466 159.438 99.2045 160.094 99.2045C160.745 99.2045 161.325 99.3352 161.832 99.5966C162.344 99.8542 162.76 100.214 163.082 100.676C163.404 101.1383 163.613 101.67 163.707 102.273H162.321C162.192 101.75 161.942 101.316 161.571 100.972C161.2 100.627 160.707 100.455 160.094 100.455C159.192 100.455 158.482 100.847 157.963 101.631C157.448 102.415 157.188 103.515 157.185 104.932H157.276C157.488 104.61 157.74 104.335 158.031 104.108C158.327 103.877 158.652 103.699 159.009 103.574C159.365 103.449 159.741 103.386 160.139 103.386C160.806 103.386 161.416 103.553 161.969 103.886C162.522 104.216 162.965 104.672 163.298 105.256C163.632 105.8352 163.798 106.5 163.798 107.25C163.798 107.97 163.637 108.629 163.315 109.227C162.993 109.822 162.541 110.295 161.957 110.648C161.378 110.996 160.696 111.167 159.912 111.159ZM159.912 109.909C160.389 109.909 160.817 109.79 161.196 109.551C161.579 109.312 161.88 108.992 162.099 108.591C162.323 108.189 162.435 107.742 162.435 107.25C162.435 106.769 162.327 106.331 162.111 105.938C161.899 105.54 161.605 105.223 161.23 104.989C160.859 104.754 160.435 104.636 159.957 104.636C159.598 104.636 159.262 104.708 158.952 104.852C158.641 104.992 158.368 105.186 158.134 105.432C157.902 105.678 157.721 105.96 157.588 106.278C157.455 106.593 157.389 106.924 157.389 107.273C157.389 107.735 157.497 108.167 157.713 108.568C157.933 108.97 158.232 109.294 158.611 109.54C158.993 109.786 159.427 109.909 159.912 109.909Z" fill="rgba(143,225,178,0.45)"/>
<path d="M413.898 64.6136V63.3636H422.625V64.6136H418.966V75H417.557V64.6136H413.898ZM428.391 75H424.8V63.3636H428.55C429.679 63.3636 430.644 63.5966 431.447 64.0625C432.25 64.5246 432.866 65.1894 433.294 66.0568C433.722 66.9205 433.936 67.9545 433.936 69.1591C433.936 70.3712 433.72 71.4148 433.288 72.2898C432.857 73.161 432.228 73.8314 431.402 74.3011C430.576 74.767 429.572 75 428.391 75ZM426.209 73.75H428.3C429.262 73.75 430.059 73.5644 430.692 73.1932C431.324 72.822 431.796 72.2936 432.107 71.608C432.417 70.9223 432.572 70.1061 432.572 69.1591C432.572 68.2197 432.419 67.411 432.112 66.733C431.805 66.0511 431.347 65.5284 430.737 65.1648C430.127 64.7973 429.368 64.6136 428.459 64.6136H426.209V73.75ZM439.8 63.2045C440.277 63.2083 440.754 63.2992 441.232 63.4773C441.709 63.6553 442.144 63.9508 442.538 64.3636C442.932 64.7727 443.249 65.3314 443.487 66.0398C443.726 66.7481 443.845 67.6364 443.845 68.7045C443.845 69.7386 443.747 70.6572 443.55 71.4602C443.357 72.2595 443.076 72.9337 442.709 73.483C442.345 74.0322 441.902 74.4489 441.379 74.733C440.86 75.017 440.273 75.1591 439.618 75.1591C438.966 75.1591 438.385 75.0303 437.874 74.7727C437.366 74.5114 436.949 74.1496 436.624 73.6875C436.302 73.2216 436.095 72.6818 436.004 72.0682H437.391C437.516 72.6023 437.764 73.0436 438.135 73.392C438.51 73.7367 439.004 73.9091 439.618 73.9091C440.516 73.9091 441.224 73.517 441.743 72.733C442.266 71.9489 442.527 70.8409 442.527 69.4091H442.436C442.224 69.7273 441.972 70.0019 441.68 70.233C441.389 70.464 441.065 70.642 440.709 70.767C440.353 70.892 439.974 70.9545 439.572 70.9545C438.906 70.9545 438.294 70.7898 437.737 70.4602C437.184 70.1269 436.741 69.6705 436.408 69.0909C436.078 68.5076 435.913 67.8409 435.913 67.0909C435.913 66.3788 436.072 65.7273 436.391 65.1364C436.713 64.5417 437.163 64.0682 437.743 63.7159C438.326 63.3636 439.012 63.1932 439.8 63.2045ZM439.8 64.4545C439.322 64.4545 438.893 64.5739 438.51 64.8125C438.131 65.0473 437.83 65.3655 437.607 65.767C437.387 66.1648 437.277 66.6061 437.277 67.0909C437.277 67.5758 437.383 68.017 437.595 68.4148C437.811 68.8087 438.105 69.1231 438.476 69.358C438.851 69.589 439.277 69.7045 439.754 69.7045C440.114 69.7045 440.449 69.6345 440.76 69.4943C441.071 69.3504 441.341 69.1553 441.572 68.9091C441.807 68.6591 441.991 68.3769 442.124 68.0625C442.256 67.7443 442.322 67.4129 442.322 67.0682C442.322 66.6136 442.213 66.1875 441.993 65.7898C441.777 65.392 441.478 65.0701 441.095 64.8239C440.716 64.5777 440.285 64.4545 439.8 64.4545Z" fill="rgba(143,225,178,0.45)"/>
<path d="M258.945 64.6136V63.3636H267.672V64.6136H264.013V75H262.604V64.6136H258.945ZM277.317 67C277.192 66.6174 277.027 66.2746 276.822 65.9716C276.622 65.6648 276.381 65.4034 276.101 65.1875C275.824 64.9716 275.51 64.8068 275.158 64.6932C274.805 64.5795 274.419 64.5227 273.999 64.5227C273.309 64.5227 272.682 64.7008 272.118 65.0568C271.554 65.4129 271.105 65.9375 270.771 66.6307C270.438 67.3239 270.271 68.1742 270.271 69.1818C270.271 70.1894 270.44 71.0398 270.777 71.733C271.114 72.4261 271.571 72.9508 272.146 73.3068C272.722 73.6629 273.37 73.8409 274.089 73.8409C274.756 73.8409 275.343 73.6989 275.851 73.4148C276.362 73.1269 276.76 72.7216 277.044 72.1989C277.332 71.6723 277.476 71.053 277.476 70.3409L277.908 70.4318H274.408V69.1818H278.839V70.4318C278.839 71.3902 278.635 72.2235 278.226 72.9318C277.821 73.6402 277.26 74.1894 276.544 74.5795C275.832 74.9659 275.014 75.1591 274.089 75.1591C273.059 75.1591 272.154 74.9167 271.374 74.4318C270.597 73.947 269.991 73.2576 269.555 72.3636C269.124 71.4697 268.908 70.4091 268.908 69.1818C268.908 68.2614 269.031 67.4337 269.277 66.6989C269.527 65.9602 269.879 65.3314 270.334 64.8125C270.788 64.2936 271.326 63.8958 271.947 63.6193C272.569 63.3428 273.252 63.2045 273.999 63.2045C274.612 63.2045 275.184 63.2973 275.714 63.483C276.249 63.6648 276.724 63.9242 277.141 64.2614C277.561 64.5947 277.911 64.9943 278.192 65.4602C278.472 65.9223 278.665 66.4356 278.771 67H277.317ZM284.753 63.2045C285.23 63.2083 285.707 63.2992 286.185 63.4773C286.662 63.6553 287.098 63.9508 287.491 64.3636C287.885 64.7727 288.202 65.3314 288.44 66.0398C288.679 66.7481 288.798 67.6364 288.798 68.7045C288.798 69.7386 288.7 70.6572 288.503 71.4602C288.31 72.2595 288.029 72.9337 287.662 73.483C287.298 74.0322 286.855 74.4489 286.332 74.733C285.813 75.017 285.226 75.1591 284.571 75.1591C283.92 75.1591 283.338 75.0303 282.827 74.7727C282.319 74.5114 281.902 74.1496 281.577 73.6875C281.255 73.2216 281.048 72.6818 280.957 72.0682H282.344C282.469 72.6023 282.717 73.0436 283.088 73.392C283.463 73.7367 283.957 73.9091 284.571 73.9091C285.469 73.9091 286.177 73.517 286.696 72.733C287.219 71.9489 287.48 70.8409 287.48 69.4091H287.389C287.177 69.7273 286.925 70.0019 286.634 70.233C286.342 70.464 286.018 70.642 285.662 70.767C285.306 70.892 284.927 70.9545 284.526 70.9545C283.859 70.9545 283.247 70.7898 282.69 70.4602C282.137 70.1269 281.694 69.6705 281.361 69.0909C281.031 68.5076 280.866 67.8409 280.866 67.0909C280.866 66.3788 281.026 65.7273 281.344 65.1364C281.666 64.5417 282.116 64.0682 282.696 63.7159C283.279 63.3636 283.965 63.1932 284.753 63.2045ZM284.753 64.4545C284.276 64.4545 283.846 64.5739 283.463 64.8125C283.084 65.0473 282.783 65.3655 282.56 65.767C282.34 66.1648 282.23 66.6061 282.23 67.0909C282.23 67.5758 282.336 68.017 282.548 68.4148C282.764 68.8087 283.058 69.1231 283.429 69.358C283.804 69.589 284.23 69.7045 284.707 69.7045C285.067 69.7045 285.402 69.6345 285.713 69.4943C286.024 69.3504 286.295 69.1553 286.526 68.9091C286.76 68.6591 286.944 68.3769 287.077 68.0625C287.209 67.7443 287.276 67.4129 287.276 67.0682C287.276 66.6136 287.166 66.1875 286.946 65.7898C286.73 65.392 286.431 65.0701 286.048 64.8239C285.67 64.5777 285.238 64.4545 284.753 64.4545Z" fill="rgba(143,225,178,0.45)"/>
<path d="M394.96 164.614V163.364H403.688V164.614H400.028V175H398.619V164.614H394.96ZM409.453 175H405.862V163.364H409.612C410.741 163.364 411.707 163.597 412.51 164.062C413.313 164.525 413.929 165.189 414.357 166.057C414.785 166.92 414.999 167.955 414.999 169.159C414.999 170.371 414.783 171.415 414.351 172.29C413.919 173.161 413.29 173.831 412.464 174.301C411.639 174.767 410.635 175 409.453 175ZM407.271 173.75H409.362C410.324 173.75 411.122 173.564 411.754 173.193C412.387 172.822 412.858 172.294 413.169 171.608C413.48 170.922 413.635 170.106 413.635 169.159C413.635 168.22 413.482 167.411 413.175 166.733C412.868 166.0511 412.41 165.528 411.8 165.165C411.19 164.7973 410.43 164.614 409.521 164.614H407.271V173.75ZM420.885 175.159C420.105 175.159 419.415 175.021 418.817 174.744C418.222 174.464 417.758 174.08 417.425 173.591C417.091 173.098 416.927 172.538 416.93 171.909C416.927 171.417 417.023 170.962 417.22 170.545C417.417 170.125 417.686 169.775 418.027 169.494C418.372 169.21 418.756 169.03 419.18 168.955V168.886C418.624 168.742 418.18 168.43 417.851 167.949C417.521 167.464 417.358 166.913 417.362 166.295C417.358 165.705 417.508 165.176 417.811 164.71C418.114 164.244 418.531 163.877 419.061 163.608C419.595 163.339 420.203 163.205 420.885 163.205C421.559 163.205 422.161 163.339 422.692 163.608C423.222 163.877 423.639 164.244 423.942 164.71C424.249 165.176 424.404 165.705 424.408 166.295C424.404 166.913 424.235 167.464 423.902 167.949C423.572 168.43 423.135 168.742 422.589 168.886V168.955C423.01 169.03 423.389 169.21 423.726 169.494C424.063 169.775 424.332 170.125 424.533 170.545C424.733 170.962 424.836 171.417 424.839 171.909C424.836 172.538 424.665 173.098 424.328 173.591C423.995 174.08 423.531 174.464 422.936 174.744C422.345 175.021 421.661 175.159 420.885 175.159ZM420.885 173.909C421.411 173.909 421.866 173.824 422.249 173.653C422.631 173.483 422.927 173.242 423.135 172.932C423.343 172.621 423.449 172.258 423.453 171.841C423.449 171.402 423.336 171.013 423.112 170.676C422.889 170.339 422.584 170.074 422.197 169.881C421.815 169.687 421.377 169.591 420.885 169.591C420.389 169.591 419.946 169.687 419.555 169.881C419.169 170.074 418.864 170.339 418.641 170.676C418.421 171.013 418.313 171.402 418.317 171.841C418.313 172.258 418.413 172.621 418.618 172.932C418.826 173.242 419.124 173.483 419.51 173.653C419.896 173.824 420.355 173.909 420.885 173.909ZM420.885 168.386C421.302 168.386 421.671 168.303 421.993 168.136C422.319 167.97 422.574 167.737 422.76 167.438C422.946 167.138 423.04 166.788 423.044 166.386C423.04 165.992 422.947 165.65 422.766 165.358C422.584 165.062 422.332 164.835 422.01 164.676C421.688 164.513 421.313 164.432 420.885 164.432C420.449 164.432 420.069 164.513 419.743 164.676C419.417 164.835 419.165 165.062 418.987 165.358C418.809 165.65 418.722 165.992 418.726 166.386C418.722 166.788 418.811 167.138 418.993 167.438C419.179 167.737 419.434 167.97 419.76 168.136C420.086 168.303 420.461 168.386 420.885 168.386Z" fill="rgba(143,225,178,0.45)"/>
<path d="M381.82 207.614V206.364H390.547V207.614H386.888V218H385.479V207.614H381.82ZM396.312 218H392.722V206.364H396.472C397.6 206.364 398.566 206.597 399.369 207.062C400.172 207.525 400.788 208.189 401.216 209.057C401.644 209.92 401.858 210.955 401.858 212.159C401.858 213.371 401.642 214.415 401.21 215.29C400.778 216.161 400.15 216.831 399.324 217.301C398.498 217.767 397.494 218 396.312 218ZM394.131 216.75H396.222C397.184 216.75 397.981 216.564 398.614 216.193C399.246 215.822 399.718 215.294 400.028 214.608C400.339 213.922 400.494 213.106 400.494 212.159C400.494 211.22 400.341 210.411 400.034 209.733C399.727 209.051 399.269 208.528 398.659 208.165C398.049 207.797 397.29 207.614 396.381 207.614H394.131V216.75ZM404.381 218L409.585 207.705V207.614H403.585V206.364H411.04V207.682L405.858 218H404.381Z" fill="rgba(143,225,178,0.45)"/>
<path d="M480.257 217.614V216.364H488.984V217.614H485.325V228H483.916V217.614H480.257ZM494.75 228H491.159V216.364H494.909C496.038 216.364 497.004 216.597 497.807 217.062C498.61 217.525 499.225 218.189 499.653 219.057C500.081 219.92 500.295 220.955 500.295 222.159C500.295 223.371 500.08 224.415 499.648 225.29C499.216 226.161 498.587 226.831 497.761 227.301C496.936 227.767 495.932 228 494.75 228ZM492.568 226.75H494.659C495.621 226.75 496.419 226.564 497.051 226.193C497.684 225.822 498.155 225.294 498.466 224.608C498.777 223.922 498.932 223.106 498.932 222.159C498.932 221.22 498.778 220.411 498.472 219.733C498.165 219.051 497.706 218.528 497.097 218.165C496.487 217.797 495.727 217.614 494.818 217.614H492.568V226.75ZM502.182 225.614V224.455L507.295 216.364H508.136V218.159H507.568L503.705 224.273V224.364H510.591V225.614H502.182ZM507.659 228V225.261V224.722V216.364H509V228H507.659Z" fill="rgba(143,225,178,0.45)"/>
<path d="M555.046 272.614V271.364H563.773V272.614H560.114V283H558.705V272.614H555.046ZM569.539 283H565.948V271.364H569.698C570.827 271.364 571.793 271.597 572.596 272.062C573.399 272.525 574.014 273.189 574.442 274.057C574.871 274.92 575.085 275.955 575.085 277.159C575.085 278.371 574.869 279.415 574.437 280.29C574.005 281.161 573.376 281.831 572.55 282.301C571.725 282.767 570.721 283 569.539 283ZM567.357 281.75H569.448C570.41 281.75 571.208 281.564 571.84 281.193C572.473 280.822 572.944 280.294 573.255 279.608C573.566 278.922 573.721 278.106 573.721 277.159C573.721 276.22 573.567 275.411 573.261 274.733C572.954 274.0511 572.496 273.528 571.886 273.165C571.276 272.797 570.516 272.614 569.607 272.614H567.357V281.75ZM577.244 283V281.977L581.085 277.773C581.535 277.28 581.906 276.852 582.198 276.489C582.49 276.121 582.706 275.777 582.846 275.455C582.99 275.129 583.062 274.788 583.062 274.432C583.062 274.023 582.963 273.669 582.766 273.369C582.573 273.07 582.308 272.839 581.971 272.676C581.634 272.513 581.255 272.432 580.835 272.432C580.388 272.432 579.997 272.525 579.664 272.71C579.335 272.892 579.079 273.148 578.897 273.477C578.719 273.807 578.63 274.193 578.63 274.636H577.289C577.289 273.955 577.446 273.356 577.761 272.841C578.075 272.326 578.503 271.924 579.045 271.636C579.59 271.348 580.202 271.205 580.88 271.205C581.562 271.205 582.166 271.348 582.692 271.636C583.219 271.924 583.632 272.312 583.931 272.801C584.23 273.29 584.38 273.833 584.38 274.432C584.38 274.86 584.302 275.278 584.147 275.688C583.996 276.093 583.73 276.545 583.352 277.045C582.977 277.542 582.456 278.148 581.789 278.864L579.175 281.659V281.75H584.585V283H577.244Z" fill="rgba(143,225,178,0.45)"/>
<path d="M584.171 343.614V342.364H592.898V343.614H589.239V354H587.83V343.614H584.171ZM598.664 354H595.073V342.364H598.823C599.952 342.364 600.918 342.597 601.721 343.062C602.524 343.525 603.139 344.189 603.567 345.057C603.996 345.92 604.21 346.955 604.21 348.159C604.21 349.371 603.994 350.415 603.562 351.29C603.13 352.161 602.501 352.831 601.675 353.301C600.85 353.767 599.846 354 598.664 354ZM596.482 352.75H598.573C599.535 352.75 600.333 352.564 600.965 352.193C601.598 351.822 602.069 351.294 602.38 350.608C602.691 349.922 602.846 349.106 602.846 348.159C602.846 347.22 602.692 346.411 602.386 345.733C602.079 345.051 601.621 344.528 601.011 344.165C600.401 343.797 599.641 343.614 598.732 343.614H596.482V352.75ZM610.46 342.364V354H609.05V343.841H608.982L606.141 345.727V344.295L609.05 342.364H610.46Z" fill="rgba(143,225,178,0.45)"/>
<path d="M507.023 177.614V176.364H515.75V177.614H512.091V188H510.682V177.614H507.023ZM521.516 188H517.925V176.364H521.675C522.804 176.364 523.769 176.597 524.572 177.062C525.375 177.525 525.991 178.189 526.419 179.057C526.847 179.92 527.061 180.955 527.061 182.159C527.061 183.371 526.845 184.415 526.413 185.29C525.982 186.161 525.353 186.831 524.527 187.301C523.701 187.767 522.697 188 521.516 188ZM519.334 186.75H521.425C522.387 186.75 523.184 186.564 523.817 186.193C524.449 185.822 524.921 185.294 525.232 184.608C525.542 183.922 525.697 183.106 525.697 182.159C525.697 181.22 525.544 180.411 525.237 179.733C524.93 179.051 524.472 178.528 523.862 178.165C523.252 177.797 522.493 177.614 521.584 177.614H519.334V186.75ZM532.857 188.159C532.19 188.159 531.589 188.027 531.055 187.761C530.521 187.496 530.093 187.133 529.771 186.67C529.449 186.208 529.273 185.682 529.243 185.091H530.607C530.66 185.617 530.898 186.053 531.322 186.398C531.75 186.739 532.262 186.909 532.857 186.909C533.334 186.909 533.758 186.797 534.129 186.574C534.504 186.35 534.798 186.044 535.01 185.653C535.226 185.259 535.334 184.814 535.334 184.318C535.334 183.811 535.222 183.358 534.999 182.96C534.779 182.559 534.476 182.242 534.089 182.011C533.703 181.78 533.262 181.663 532.766 181.659C532.41 181.655 532.044 181.71 531.669 181.824C531.294 181.934 530.985 182.076 530.743 182.25L529.425 182.091L530.129 176.364H536.175V177.614H531.311L530.902 181.045H530.97C531.209 180.856 531.508 180.699 531.868 180.574C532.228 180.449 532.603 180.386 532.993 180.386C533.705 180.386 534.339 180.557 534.896 180.898C535.457 181.235 535.896 181.697 536.214 182.284C536.536 182.871 536.697 183.542 536.697 184.295C536.697 185.038 536.531 185.701 536.197 186.284C535.868 186.864 535.413 187.322 534.834 187.659C534.254 187.992 533.595 188.159 532.857 188.159Z" fill="rgba(143,225,178,0.45)"/>
<path d="M538.898 94.6136V93.3636H547.625V94.6136H543.966V105H542.557V94.6136H538.898ZM553.391 105H549.8V93.3636H553.55C554.679 93.3636 555.644 93.5966 556.447 94.0625C557.25 94.5246 557.866 95.1894 558.294 96.0568C558.722 96.9205 558.936 97.9545 558.936 99.1591C558.936 100.371 558.72 101.415 558.288 102.29C557.857 103.161 557.228 103.831 556.402 104.301C555.576 104.767 554.572 105 553.391 105ZM551.209 103.75H553.3C554.262 103.75 555.059 103.564 555.692 103.193C556.324 102.822 556.796 102.294 557.107 101.608C557.417 100.922 557.572 100.106 557.572 99.1591C557.572 98.2197 557.419 97.411 557.112 96.733C556.805 96.0511 556.347 95.5284 555.737 95.1648C555.127 94.7973 554.368 94.6136 553.459 94.6136H551.209V103.75ZM564.959 105.159C564.482 105.152 564.004 105.061 563.527 104.886C563.05 104.712 562.614 104.419 562.22 104.006C561.826 103.589 561.51 103.027 561.271 102.318C561.033 101.606 560.913 100.712 560.913 99.6364C560.913 98.6061 561.01 97.6932 561.203 96.8977C561.396 96.0985 561.677 95.4261 562.044 94.8807C562.411 94.3314 562.855 93.9148 563.374 93.6307C563.896 93.3466 564.485 93.2045 565.141 93.2045C565.792 93.2045 566.372 93.3352 566.879 93.5966C567.391 93.8542 567.807 94.214 568.129 94.6761C568.451 95.1383 568.66 95.6705 568.754 96.2727H567.368C567.239 95.75 566.989 95.3163 566.618 94.9716C566.247 94.6269 565.754 94.4545 565.141 94.4545C564.239 94.4545 563.529 94.8466 563.01 95.6307C562.495 96.4148 562.235 97.5152 562.232 98.9318H562.322C562.535 98.6098 562.786 98.3352 563.078 98.108C563.374 97.8769 563.699 97.6989 564.055 97.5739C564.411 97.4489 564.788 97.3864 565.186 97.3864C565.853 97.3864 566.463 97.553 567.016 97.8864C567.569 98.2159 568.012 98.6723 568.345 99.2557C568.679 99.8352 568.845 100.5 568.845 101.25C568.845 101.97 568.684 102.629 568.362 103.227C568.04 103.822 567.588 104.295 567.004 104.648C566.425 104.996 565.743 105.167 564.959 105.159ZM564.959 103.909C565.436 103.909 565.864 103.79 566.243 103.551C566.625 103.312 566.927 102.992 567.146 102.591C567.37 102.189 567.482 101.742 567.482 101.25C567.482 100.769 567.374 100.331 567.158 99.9375C566.946 99.5398 566.652 99.2235 566.277 98.9886C565.906 98.7538 565.482 98.6364 565.004 98.6364C564.644 98.6364 564.309 98.7083 563.999 98.8523C563.688 98.9924 563.415 99.1856 563.18 99.4318C562.949 99.678 562.768 99.9602 562.635 100.278C562.502 100.593 562.436 100.924 562.436 101.273C562.436 101.735 562.544 102.167 562.76 102.568C562.98 102.97 563.279 103.294 563.658 103.54C564.04 103.786 564.474 103.909 564.959 103.909Z" fill="rgba(143,225,178,0.45)"/>
<path d="M582.796 230.614V229.364H591.523V230.614H587.864V241H586.455V230.614H582.796ZM597.289 241H593.698V229.364H597.448C598.577 229.364 599.543 229.597 600.346 230.062C601.149 230.525 601.764 231.189 602.192 232.057C602.621 232.92 602.835 233.955 602.835 235.159C602.835 236.371 602.619 237.415 602.187 238.29C601.755 239.161 601.126 239.831 600.3 240.301C599.475 240.767 598.471 241 597.289 241ZM595.107 239.75H597.198C598.16 239.75 598.958 239.564 599.59 239.193C600.223 238.822 600.694 238.294 601.005 237.608C601.316 236.922 601.471 236.106 601.471 235.159C601.471 234.22 601.317 233.411 601.011 232.733C600.704 232.051 600.246 231.528 599.636 231.165C599.026 230.797 598.266 230.614 597.357 230.614H595.107V239.75ZM608.925 241.159C608.175 241.159 607.507 241.03 606.92 240.773C606.336 240.515 605.872 240.157 605.528 239.699C605.187 239.237 605.001 238.701 604.971 238.091H606.403C606.433 238.466 606.562 238.79 606.789 239.062C607.016 239.331 607.314 239.54 607.681 239.688C608.049 239.835 608.456 239.909 608.903 239.909C609.403 239.909 609.846 239.822 610.232 239.648C610.619 239.473 610.922 239.231 611.141 238.92C611.361 238.61 611.471 238.25 611.471 237.841C611.471 237.413 611.365 237.036 611.153 236.71C610.941 236.381 610.63 236.123 610.221 235.938C609.812 235.752 609.312 235.659 608.721 235.659H607.789V234.409H608.721C609.183 234.409 609.588 234.326 609.937 234.159C610.289 233.992 610.564 233.758 610.761 233.455C610.961 233.152 611.062 232.795 611.062 232.386C611.062 231.992 610.975 231.65 610.8 231.358C610.626 231.066 610.38 230.839 610.062 230.676C609.747 230.513 609.376 230.432 608.948 230.432C608.547 230.432 608.168 230.506 607.812 230.653C607.46 230.797 607.172 231.008 606.948 231.284C606.725 231.557 606.603 231.886 606.585 232.273H605.221C605.244 231.663 605.427 231.129 605.772 230.67C606.117 230.208 606.567 229.848 607.124 229.591C607.685 229.333 608.3 229.205 608.971 229.205C609.691 229.205 610.308 229.35 610.823 229.642C611.338 229.93 611.734 230.311 612.011 230.784C612.287 231.258 612.425 231.769 612.425 232.318C612.425 232.973 612.253 233.532 611.908 233.994C611.567 234.456 611.103 234.777 610.516 234.955V235.045C611.251 235.167 611.825 235.479 612.238 235.983C612.651 236.483 612.857 237.102 612.857 237.841C612.857 238.473 612.685 239.042 612.34 239.545C611.999 240.045 611.533 240.439 610.942 240.727C610.352 241.015 609.679 241.159 608.925 241.159Z" fill="rgba(143,225,178,0.45)"/>
<path d="M196.804 219.614V218.364H205.531V219.614H201.872V230H200.463V219.614H196.804ZM215.176 222C215.051 221.617 214.886 221.275 214.682 220.972C214.481 220.665 214.241 220.403 213.96 220.188C213.684 219.972 213.369 219.807 213.017 219.693C212.665 219.58 212.278 219.523 211.858 219.523C211.169 219.523 210.542 219.701 209.977 220.057C209.413 220.413 208.964 220.938 208.631 221.631C208.297 222.324 208.131 223.174 208.131 224.182C208.131 225.189 208.299 226.04 208.636 226.733C208.973 227.426 209.43 227.951 210.006 228.307C210.581 228.663 211.229 228.841 211.949 228.841C212.616 228.841 213.203 228.699 213.71 228.415C214.222 228.127 214.619 227.722 214.903 227.199C215.191 226.672 215.335 226.053 215.335 225.341L215.767 225.432H212.267V224.182H216.699V225.432C216.699 226.39 216.494 227.223 216.085 227.932C215.68 228.64 215.119 229.189 214.403 229.58C213.691 229.966 212.873 230.159 211.949 230.159C210.919 230.159 210.013 229.917 209.233 229.432C208.456 228.947 207.85 228.258 207.415 227.364C206.983 226.47 206.767 225.409 206.767 224.182C206.767 223.261 206.89 222.434 207.136 221.699C207.386 220.96 207.739 220.331 208.193 219.812C208.648 219.294 209.186 218.896 209.807 218.619C210.428 218.343 211.112 218.205 211.858 218.205C212.472 218.205 213.044 218.297 213.574 218.483C214.108 218.665 214.583 218.924 215 219.261C215.42 219.595 215.771 219.994 216.051 220.46C216.331 220.922 216.525 221.436 216.631 222H215.176ZM218.635 227.614V226.455L223.749 218.364H224.589V220.159H224.021L220.158 226.273V226.364H227.044V227.614H218.635ZM224.112 230V227.261V226.722V218.364H225.453V230H224.112Z" fill="rgba(143,225,178,0.45)"/>
<path d="M121.093 275.614V274.364H129.82V275.614H126.161V286H124.752V275.614H121.093ZM139.465 278C139.34 277.617 139.175 277.275 138.971 276.972C138.77 276.665 138.53 276.403 138.249 276.188C137.973 275.972 137.658 275.807 137.306 275.693C136.954 275.58 136.567 275.523 136.147 275.523C135.458 275.523 134.831 275.701 134.266 276.057C133.702 276.413 133.253 276.938 132.92 277.631C132.586 278.324 132.42 279.174 132.42 280.182C132.42 281.189 132.588 282.04 132.925 282.733C133.263 283.426 133.719 283.951 134.295 284.307C134.871 284.663 135.518 284.841 136.238 284.841C136.905 284.841 137.492 284.699 137.999 284.415C138.511 284.127 138.908 283.722 139.192 283.199C139.48 282.672 139.624 282.053 139.624 281.341L140.056 281.432H136.556V280.182H140.988V281.432C140.988 282.39 140.783 283.223 140.374 283.932C139.969 284.64 139.408 285.189 138.692 285.58C137.98 285.966 137.162 286.159 136.238 286.159C135.208 286.159 134.302 285.917 133.522 285.432C132.746 284.947 132.139 284.258 131.704 283.364C131.272 282.47 131.056 281.409 131.056 280.182C131.056 279.261 131.179 278.434 131.425 277.699C131.675 276.96 132.028 276.331 132.482 275.812C132.937 275.294 133.475 274.896 134.096 274.619C134.717 274.343 135.401 274.205 136.147 274.205C136.761 274.205 137.333 274.297 137.863 274.483C138.397 274.665 138.872 274.924 139.289 275.261C139.71 275.595 140.06 275.994 140.34 276.46C140.621 276.922 140.814 277.436 140.92 278H139.465ZM143.197 286V284.977L147.038 280.773C147.488 280.28 147.86 279.852 148.151 279.489C148.443 279.121 148.659 278.777 148.799 278.455C148.943 278.129 149.015 277.788 149.015 277.432C149.015 277.023 148.916 276.669 148.719 276.369C148.526 276.07 148.261 275.839 147.924 275.676C147.587 275.513 147.208 275.432 146.788 275.432C146.341 275.432 145.951 275.525 145.617 275.71C145.288 275.892 145.032 276.148 144.85 276.477C144.672 276.807 144.583 277.193 144.583 277.636H143.242C143.242 276.955 143.399 276.356 143.714 275.841C144.028 275.326 144.456 274.924 144.998 274.636C145.543 274.348 146.155 274.205 146.833 274.205C147.515 274.205 148.119 274.348 148.646 274.636C149.172 274.924 149.585 275.312 149.884 275.801C150.183 276.29 150.333 276.833 150.333 277.432C150.333 277.86 150.255 278.278 150.1 278.688C149.949 279.093 149.683 279.545 149.305 280.045C148.93 280.542 148.409 281.148 147.742 281.864L145.129 284.659V284.75H150.538V286H143.197Z" fill="rgba(143,225,178,0.45)"/>
<path d="M94.218 343.614V342.364H102.945V343.614H99.2862V354H97.8771V343.614H94.218ZM112.59 346C112.465 345.617 112.3 345.275 112.096 344.972C111.895 344.665 111.655 344.403 111.374 344.188C111.098 343.972 110.783 343.807 110.431 343.693C110.079 343.58 109.692 343.523 109.272 343.523C108.583 343.523 107.956 343.701 107.391 344.057C106.827 344.413 106.378 344.938 106.045 345.631C105.711 346.324 105.545 347.174 105.545 348.182C105.545 349.189 105.713 350.04 106.05 350.733C106.388 351.426 106.844 351.951 107.42 352.307C107.996 352.663 108.643 352.841 109.363 352.841C110.03 352.841 110.617 352.699 111.124 352.415C111.636 352.127 112.033 351.722 112.317 351.199C112.605 350.672 112.749 350.053 112.749 349.341L113.181 349.432H109.681V348.182H114.113V349.432C114.113 350.39 113.908 351.223 113.499 351.932C113.094 352.64 112.533 353.189 111.817 353.58C111.105 353.966 110.287 354.159 109.363 354.159C108.333 354.159 107.427 353.917 106.647 353.432C105.871 352.947 105.264 352.258 104.829 351.364C104.397 350.47 104.181 349.409 104.181 348.182C104.181 347.261 104.304 346.434 104.55 345.699C104.8 344.96 105.153 344.331 105.607 343.812C106.062 343.294 106.6 342.896 107.221 342.619C107.842 342.343 108.526 342.205 109.272 342.205C109.886 342.205 110.458 342.297 110.988 342.483C111.522 342.665 111.997 342.924 112.414 343.261C112.835 343.595 113.185 343.994 113.465 344.46C113.746 344.922 113.939 345.436 114.045 346H112.59ZM120.413 342.364V354H119.004V343.841H118.935L116.094 345.727V344.295L119.004 342.364H120.413Z" fill="rgba(143,225,178,0.45)"/>
</g>
<defs>
<clipPath id="clip0_4_2">
<rect width="706" height="464" fill="white"/>
</clipPath>
</defs>
</svg>
